<svg width="30" height="30" viewBox="0 0 30 30" fill="none" xmlns="http://www.w3.org/2000/svg">
    <path d="M27 13.75v7.571A5.687 5.687 0 0 1 21.315 27h-3.158v-5.68a3.159 3.159 0 0 0-6.315 0V27H8.684A5.688 5.688 0 0 1 3 21.321V13.75c0-1.727.773-3.34 2.12-4.425l6.315-5.079c2.064-1.66 5.061-1.66 7.128 0l6.316 5.079a5.653 5.653 0 0 1 2.12 4.425z" fill="#5486E9"/>
    <path d="M27 13.75v7.571A5.687 5.687 0 0 1 21.315 27h-3.158v-5.68a3.159 3.159 0 0 0-6.315 0V27H8.684A5.688 5.688 0 0 1 3 21.321V13.75c0-1.727.773-3.34 2.12-4.425l6.315-5.079c2.064-1.66 5.061-1.66 7.128 0l6.316 5.079a5.653 5.653 0 0 1 2.12 4.425z" fill="#A4A4A4"/>
</svg>
