<svg width="150" height="41" viewBox="0 0 150 41" fill="none" xmlns="http://www.w3.org/2000/svg">
    <path d="M19.707 25.452c-.043-.869.435-1.501 1.074-2.058 1.221-1.06 2.443-2.116 3.664-3.172 2.09-1.813 4.16-3.649 6.278-5.44 1.122-.944 1.198-2.499.139-3.541-1.503-1.48-2.968-2.998-4.461-4.486-.897-.896-2.419-1.127-3.545-.16-1.727 1.487-3.45 2.984-5.171 4.472l-7.266 6.277c-1.909 1.648-3.822 3.297-5.735 4.945-.153.13-.32.25-.472.379-.773.66-.845.664-1.57-.058-.797-.789-1.579-1.586-2.366-2.383-.406-.41-.353-.744.086-1.114 1.016-.856 2.008-1.733 3.01-2.602 2.467-2.134 4.928-4.268 7.395-6.397 1.508-1.301 3.02-2.597 4.527-3.894 1.966-1.693 3.912-3.408 5.907-5.078C22.017.455 23.009.104 24.14.019c2.099-.152 3.688.615 5.028 2.085 1.255 1.372 2.629 2.65 3.946 3.974 2.194 2.21 4.384 4.423 6.569 6.638.477.48.468.792-.043 1.238-2.676 2.33-5.358 4.655-8.034 6.985-1.632 1.417-3.268 2.834-4.9 4.255-.83.717-1.646 1.448-2.485 2.152-1.541 1.296-3.98.579-4.47-1.31-.048-.187-.03-.388-.044-.58v-.004z" fill="#fff"/>
    <path d="M26.748 13.584c.043.869-.434 1.501-1.073 2.058-1.221 1.06-2.443 2.116-3.664 3.172-2.09 1.813-4.16 3.649-6.278 5.44-1.122.944-1.198 2.499-.139 3.541 1.503 1.48 2.968 2.998 4.461 4.486.897.896 2.419 1.127 3.545.16 1.727-1.487 3.449-2.984 5.171-4.472l7.266-6.277c1.909-1.648 3.822-3.297 5.735-4.945.153-.13.32-.25.472-.379.773-.66.845-.664 1.57.058.797.789 1.579 1.586 2.366 2.384.406.41.353.744-.086 1.113-1.016.856-2.008 1.733-3.01 2.602-2.467 2.134-4.928 4.268-7.395 6.397-1.508 1.301-3.02 2.598-4.527 3.894-1.966 1.693-3.913 3.408-5.907 5.078-.816.687-1.808 1.038-2.939 1.123-2.099.152-3.688-.615-5.028-2.085-1.255-1.372-2.629-2.65-3.946-3.974-2.194-2.21-4.384-4.423-6.569-6.637-.477-.482-.468-.793.043-1.239 2.676-2.33 5.358-4.655 8.034-6.985 1.632-1.417 3.268-2.834 4.9-4.255.83-.717 1.646-1.448 2.485-2.152 1.541-1.296 3.98-.579 4.47 1.31.048.187.03.388.044.58v.004zM74.72 7.596v24.793c0 .328-.17.494-.51.494h-2.796c-.398 0-.716-.176-.948-.528l-13.74-19.377v19.416c0 .328-.166.494-.492.494H53.3c-.341 0-.512-.166-.512-.494V7.596c0-.343.17-.514.512-.514h3.041c.365 0 .678.2.948.6l13.494 18.744V7.596c0-.343.165-.514.492-.514h2.933c.341 0 .512.171.512.514zM98.855 27.237c.199 0 .35.071.455.209l1.544 2.273a.351.351 0 0 1 .071.228.696.696 0 0 1-.094.342.95.95 0 0 1-.275.29c-1.01.847-2.227 1.517-3.653 2.012-1.43.494-2.824.742-4.184.742-2.45 0-4.7-.595-6.756-1.784a13.224 13.224 0 0 1-4.875-4.83c-1.194-2.036-1.791-4.266-1.791-6.7 0-2.435.597-4.69 1.79-6.73a13.213 13.213 0 0 1 4.876-4.84C88.02 7.26 90.27 6.666 92.72 6.666c1.299 0 2.668.252 4.103.756 1.436.504 2.701 1.175 3.805 2.011.232.19.351.39.351.6a.45.45 0 0 1-.091.28l-1.582 2.24c-.095.152-.242.228-.44.228-.176 0-.351-.071-.526-.214a11.26 11.26 0 0 0-2.767-1.507c-.99-.371-1.943-.557-2.857-.557-1.734 0-3.322.424-4.762 1.27a9.432 9.432 0 0 0-3.425 3.447c-.844 1.45-1.266 3.048-1.266 4.789 0 1.74.422 3.314 1.266 4.76a9.37 9.37 0 0 0 3.434 3.428c1.446.842 3.033 1.26 4.753 1.26.914 0 1.866-.18 2.857-.547.99-.366 1.895-.865 2.714-1.497a.998.998 0 0 1 .564-.195l.005.019zM105.924 7.75c0-.434.223-.652.668-.652h16.218c.222 0 .393.057.516.166.123.11.185.271.185.485v2.363c0 .214-.062.376-.185.495s-.294.176-.516.176h-12.93v7.175h10.295c.247 0 .436.057.574.167.132.114.203.27.203.485v2.363c0 .2-.071.357-.208.476-.142.118-.327.175-.564.175h-10.295v7.528h13.086c.279 0 .502.071.668.214.166.143.246.342.246.599l-.019 2.22c.01.215-.052.376-.185.495a.754.754 0 0 1-.516.176h-16.568c-.446 0-.668-.223-.668-.67V7.749h-.005zM148.329 32.471a.357.357 0 0 1-.147.3c-.099.071-.236.105-.412.105h-3.335c-.303 0-.574-.176-.81-.528l-6.254-9.33-6.273 9.33c-.256.352-.526.528-.811.528h-3.335c-.19 0-.332-.034-.431-.105a.349.349 0 0 1-.152-.3c0-.118.052-.252.156-.404l8.453-12.591-7.784-11.565c-.119-.152-.176-.3-.176-.442 0-.119.048-.21.142-.28.095-.072.223-.105.389-.105h3.392c.294 0 .569.18.825.547l5.567 8.302 5.605-8.302c.255-.366.53-.547.824-.547h3.407c.341 0 .511.128.511.39 0 .128-.052.276-.156.442L139.725 19.5l8.453 12.572c.104.152.156.29.156.404l-.005-.005z" fill="#fff"/>
</svg>
