<svg width="91" height="25" viewBox="0 0 91 25" fill="none" xmlns="http://www.w3.org/2000/svg">
    <g clip-path="url(#v04779l6ha)" fill="#fff">
        <path d="M11.954 16.303c-.026-.556.263-.962.651-1.318.741-.68 1.482-1.356 2.223-2.032 1.268-1.161 2.524-2.337 3.809-3.484.68-.605.726-1.601.084-2.269-.912-.947-1.8-1.92-2.706-2.873-.545-.574-1.468-.722-2.15-.103-1.049.953-2.093 1.912-3.138 2.865l-4.408 4.02a3792.403 3792.403 0 0 1-3.48 3.168c-.092.083-.193.16-.286.243-.469.422-.512.425-.952-.037-.483-.506-.958-1.016-1.436-1.527-.246-.263-.214-.477.052-.714.617-.548 1.219-1.11 1.827-1.666C3.54 9.209 5.034 7.842 6.53 6.478c.915-.833 1.832-1.663 2.747-2.494C10.469 2.9 11.65 1.801 12.86.731c.495-.44 1.097-.665 1.783-.719 1.273-.097 2.237.394 3.05 1.336.761.878 1.595 1.697 2.394 2.545 1.331 1.415 2.66 2.833 3.985 4.252.29.308.284.508-.026.793-1.623 1.492-3.25 2.982-4.874 4.474-.99.908-1.982 1.815-2.972 2.725-.504.46-.999.928-1.508 1.379-.935.83-2.414.37-2.712-.84-.029-.119-.017-.247-.026-.37v-.003z"/>
        <path d="M16.227 8.7c.026.557-.264.962-.652 1.319-.74.679-1.481 1.355-2.222 2.031-1.268 1.162-2.524 2.337-3.81 3.484-.68.605-.726 1.601-.083 2.27.912.946 1.8 1.92 2.706 2.873.544.573 1.467.721 2.15.102 1.048-.953 2.093-1.912 3.138-2.865l4.408-4.02c1.158-1.056 2.318-2.112 3.479-3.168.093-.083.194-.16.287-.242.468-.423.512-.425.952.037.483.505.958 1.016 1.435 1.526.246.263.215.477-.052.714-.616.548-1.218 1.11-1.826 1.666-1.497 1.367-2.99 2.734-4.486 4.098-.915.833-1.832 1.664-2.747 2.494-1.192 1.084-2.373 2.183-3.583 3.253-.495.44-1.097.665-1.783.72-1.274.096-2.237-.395-3.05-1.336-.762-.88-1.595-1.698-2.394-2.546-1.332-1.415-2.66-2.833-3.986-4.252-.29-.308-.283-.507.026-.793l4.874-4.474c.99-.908 1.983-1.815 2.973-2.725.503-.46.998-.928 1.508-1.379.935-.83 2.414-.37 2.712.84.029.12.017.248.026.37V8.7zM46.035 5.363V20.24c0 .197-.105.297-.313.297h-1.708a.664.664 0 0 1-.579-.317L35.042 8.593v11.651c0 .197-.101.297-.301.297h-1.792c-.208 0-.312-.1-.312-.297V5.363c0-.206.104-.308.312-.308h1.858c.223 0 .414.12.58.36l8.242 11.248v-11.3c0-.206.102-.308.301-.308h1.792c.208 0 .313.102.313.308zM60.778 17.151a.33.33 0 0 1 .278.126l.943 1.364a.21.21 0 0 1 .044.137.41.41 0 0 1-.058.205.566.566 0 0 1-.168.174c-.617.508-1.36.91-2.232 1.207a7.92 7.92 0 0 1-2.555.445c-1.497 0-2.872-.356-4.128-1.07a8.01 8.01 0 0 1-2.978-2.899 7.693 7.693 0 0 1-1.094-4.02c0-1.462.365-2.814 1.094-4.038a8.003 8.003 0 0 1 2.978-2.905c1.256-.714 2.631-1.07 4.128-1.07.793 0 1.63.15 2.506.453.877.303 1.65.705 2.324 1.207.142.115.214.234.214.36 0 .063-.017.12-.055.168l-.966 1.344c-.058.092-.148.137-.27.137a.515.515 0 0 1-.32-.128 6.917 6.917 0 0 0-1.691-.905 5.046 5.046 0 0 0-1.745-.334c-1.06 0-2.03.254-2.909.762a5.71 5.71 0 0 0-2.093 2.07 5.54 5.54 0 0 0-.772 2.873c0 1.044.257 1.989.772 2.856a5.674 5.674 0 0 0 2.099 2.057 5.747 5.747 0 0 0 2.903.757c.558 0 1.14-.109 1.745-.328a6.274 6.274 0 0 0 1.659-.9.617.617 0 0 1 .344-.116l.003.011zM65.096 5.457c0-.26.136-.39.408-.39h9.907c.136 0 .24.034.316.1.075.065.112.162.112.29v1.419a.386.386 0 0 1-.112.296c-.076.072-.18.106-.316.106h-7.899v4.306h6.29c.15 0 .266.034.35.1a.358.358 0 0 1 .124.29v1.42c0 .119-.043.213-.127.284a.521.521 0 0 1-.344.106h-6.29v4.517h7.994c.171 0 .307.043.409.129.1.085.15.205.15.36l-.011 1.332c.005.128-.032.225-.113.297a.468.468 0 0 1-.316.105H65.507c-.272 0-.408-.134-.408-.402V5.457h-.003zM91.001 20.294a.213.213 0 0 1-.09.18.431.431 0 0 1-.252.062h-2.037c-.185 0-.35-.105-.495-.317l-3.82-5.598-3.832 5.598c-.157.212-.322.317-.495.317h-2.038a.453.453 0 0 1-.263-.063.209.209 0 0 1-.093-.18.44.44 0 0 1 .096-.242l5.163-7.556-4.755-6.94a.43.43 0 0 1-.108-.265c0-.072.03-.126.087-.169a.39.39 0 0 1 .238-.062h2.072c.18 0 .347.108.504.328l3.4 4.982 3.424-4.982c.157-.22.325-.328.504-.328h2.081c.208 0 .313.077.313.234a.511.511 0 0 1-.096.265l-4.764 6.951 5.163 7.545a.448.448 0 0 1 .096.243l-.003-.003z"/>
    </g>
    <defs>
        <clipPath id="v04779l6ha">
            <path fill="#fff" d="M0 0h91v25H0z"/>
        </clipPath>
    </defs>
</svg>
