<svg width="17" height="17" viewBox="0 0 17 17" fill="none" xmlns="http://www.w3.org/2000/svg">
    <path d="M8.837 17a.484.484 0 0 1-.255-.074.498.498 0 0 1-.16-.676c.085-.137.16-.275.235-.41.284-.507.574-1.028 1.148-1.453.424-.315.867-.455 1.293-.595.181-.059.353-.113.523-.182a7.59 7.59 0 0 0 2.326-1.455c1.324-1.22 2.085-2.88 2.085-4.562 0-3.645-3.38-6.612-7.532-6.612S.968 3.95.968 7.595c0 3.122 2.525 5.846 6.002 6.475a.49.49 0 0 1 .392.57.485.485 0 0 1-.562.399C2.86 14.323 0 11.194 0 7.595 0 3.407 3.813 0 8.5 0 13.187 0 17 3.407 17 7.595c0 1.96-.876 3.89-2.402 5.293a8.503 8.503 0 0 1-2.62 1.64c-.2.08-.396.142-.585.203-.385.126-.719.231-1.017.453-.404.297-.622.688-.876 1.143-.08.142-.162.29-.252.44a.484.484 0 0 1-.414.233h.003z" fill="#fff"/>
    <path d="M5.365 6.72H3.837v1.551h1.528v-1.55zM9.512 6.72H7.984v1.551h1.528v-1.55zM13.565 6.72h-1.528v1.551h1.528v-1.55z" fill="#fff"/>
</svg>
